<?xml version="1.0" encoding="UTF-8" standalone="no"?>
<!-- Created with Inkscape (http://www.inkscape.org/) -->

<svg
   xmlns:dc="http://purl.org/dc/elements/1.1/"
   xmlns:cc="http://creativecommons.org/ns#"
   xmlns:rdf="http://www.w3.org/1999/02/22-rdf-syntax-ns#"
   xmlns:svg="http://www.w3.org/2000/svg"
   xmlns="http://www.w3.org/2000/svg"
   xmlns:sodipodi="http://sodipodi.sourceforge.net/DTD/sodipodi-0.dtd"
   xmlns:inkscape="http://www.inkscape.org/namespaces/inkscape"
   width="949"
   height="1200"
   id="svg2"
   sodipodi:version="0.32"
   inkscape:version="0.48.4 r9939"
   version="1.0"
   sodipodi:docname="Shanghai-WIP.svg"
   inkscape:output_extension="org.inkscape.output.svg.inkscape">
  <defs
     id="defs4">
    <inkscape:perspective
       sodipodi:type="inkscape:persp3d"
       inkscape:vp_x="0 : 600 : 1"
       inkscape:vp_y="0 : 1000 : 0"
       inkscape:vp_z="949 : 600 : 1"
       inkscape:persp3d-origin="474.5 : 400 : 1"
       id="perspective2629" />
    <inkscape:perspective
       id="perspective2676"
       inkscape:persp3d-origin="474.5 : 400 : 1"
       inkscape:vp_z="949 : 600 : 1"
       inkscape:vp_y="0 : 1000 : 0"
       inkscape:vp_x="0 : 600 : 1"
       sodipodi:type="inkscape:persp3d" />
  </defs>
  <sodipodi:namedview
     id="base"
     pagecolor="#ffffff"
     bordercolor="#666666"
     borderopacity="1.0"
     gridtolerance="10000"
     guidetolerance="10"
     objecttolerance="10"
     inkscape:pageopacity="1"
     inkscape:pageshadow="2"
     inkscape:zoom="1"
     inkscape:cx="390.30596"
     inkscape:cy="447.77586"
     inkscape:document-units="px"
     inkscape:current-layer="layer1"
     width="949px"
     height="1200px"
     inkscape:window-width="1366"
     inkscape:window-height="705"
     inkscape:window-x="-8"
     inkscape:window-y="-8"
     showgrid="false"
     inkscape:window-maximized="1" />
  <metadata
     id="metadata7">
    <rdf:RDF>
      <cc:Work
         rdf:about="">
        <dc:format>image/svg+xml</dc:format>
        <dc:type
           rdf:resource="http://purl.org/dc/dcmitype/StillImage" />
        <cc:license
           rdf:resource="http://web.resource.org/cc/PublicDomain" />
        <dc:title>Shanghai Administrative Divisions</dc:title>
        <dc:date>2008-03-17</dc:date>
        <dc:creator>
          <cc:Agent>
            <dc:title>en:User:Joowwww (Wikipedia)</dc:title>
          </cc:Agent>
        </dc:creator>
      </cc:Work>
      <cc:License
         rdf:about="http://web.resource.org/cc/PublicDomain">
        <cc:permits
           rdf:resource="http://web.resource.org/cc/Reproduction" />
        <cc:permits
           rdf:resource="http://web.resource.org/cc/Distribution" />
        <cc:permits
           rdf:resource="http://web.resource.org/cc/DerivativeWorks" />
      </cc:License>
    </rdf:RDF>
  </metadata>
  <g
     inkscape:label="Administrative background"
     inkscape:groupmode="layer"
     id="layer1"
     style="display:inline">
    <path
       style="fill:#ededed;fill-opacity:1;fill-rule:evenodd;stroke:#4b4b4b;stroke-width:1.25000000000000000;stroke-linecap:butt;stroke-linejoin:miter;stroke-miterlimit:4;stroke-opacity:1;stroke-dasharray:none"
       d="m 26.964286,714.28572 -14.732143,15.35714 1.517857,0.89286 6.875,3.03571 4.196428,2.58929 13.839286,-0.89286 6.607143,-3.57143 3.303571,0.26786 1.339286,-8.66072 -16.339286,-4.28571 -6.607142,-4.73214 z"
       id="path11024"
       inkscape:connector-curvature="0" />
    <path
       style="fill:#ededed;fill-opacity:1;fill-rule:evenodd;stroke:#4b4b4b;stroke-width:1.25000000000000000;stroke-linecap:butt;stroke-linejoin:miter;stroke-miterlimit:4;stroke-opacity:1;stroke-dasharray:none"
       d="m 68.571428,720.35715 -5.357143,4.28571 -5,6.07143 -0.267857,4.46428 8.392857,3.75 8.392857,0.0893 L 71.071428,735 l -1.339285,-5.35714 2.946428,-3.83929 0,-5.53571 -4.107143,0.0893 z"
       id="path11995"
       inkscape:connector-curvature="0" />
    <path
       style="fill:#ededed;fill-opacity:1;fill-rule:evenodd;stroke:#4b4b4b;stroke-width:1.25000000000000000;stroke-linecap:butt;stroke-linejoin:miter;stroke-miterlimit:4;stroke-opacity:1;stroke-dasharray:none"
       d="m 34.196428,769.73215 5.892858,-3.03572 10.624999,0 2.5,-4.73214 1.071429,-12.32143 2.142857,-1.96429 -3.392857,-3.83928 L 33.303571,743.30357 10.982143,741.78572 7.3214285,740.80357 5,746.07143 l 1.4285714,5 4.0178576,4.28572 6.339285,3.48214 4.821429,0.44643 5.892857,4.19643 6.696428,6.25 z"
       id="path12966"
       inkscape:connector-curvature="0" />
    <path
       style="fill:#ffffd0;fill-opacity:1;fill-rule:evenodd;stroke:#4b4b4b;stroke-opacity:1;stroke-width:1.25000000000000000;stroke-miterlimit:4;stroke-dasharray:none"
       d="m 46.517857,777.32143 -1.696429,1.78571 1.964286,5.08929 1.964286,-1.60714 0,-2.85715 -2.232143,-2.41071 z"
       id="path13937"
       inkscape:connector-curvature="0" />
    <path
       style="fill:#ededed;fill-opacity:1;fill-rule:evenodd;stroke:#4b4b4b;stroke-width:1.25000000000000000;stroke-linecap:butt;stroke-linejoin:miter;stroke-miterlimit:4;stroke-opacity:1;stroke-dasharray:none"
       d="m 35.089286,800.08929 3.125,0 6.874999,6.25 4.017858,1.60714 2.321428,-4.375 -0.446428,-4.55357 4.732142,1.78571 4.732143,7.94643 6.517857,3.66072 -3.303571,6.51785 0.982143,8.83929 0.803571,1.42857 -8.482143,8.39286 -6.428571,4.10714 -9.910714,-7.05357 -2.321429,-6.96429 0.267857,-11.96428 -3.482142,-15.625 z"
       id="path14908"
       inkscape:connector-curvature="0" />
    <path
       style="fill:#ededed;fill-opacity:1;fill-rule:evenodd;stroke:#4b4b4b;stroke-width:1.25000000000000000;stroke-linecap:butt;stroke-linejoin:miter;stroke-miterlimit:4;stroke-opacity:1;stroke-dasharray:none"
       d="m 140.26786,711.78572 2.76785,13.57143 -13.30357,27.85714 -12.05357,3.30357 -12.32143,9.91071 -13.660712,5.53572 -17.410714,9.19643 L 59.375,785.89286 55.982143,782.32143 55,787.58929 l 4.821428,5.17857 11.875,6.875 3.571429,3.57143 8.214285,-14.91072 8.392858,0.71429 -0.178572,4.10714 13.125002,-3.39286 5.08928,-5.26785 5.625,-7.41072 12.67858,-7.94642 6.07142,2.58928 -0.0893,5.08929 -10.35714,9.46428 -9.375,4.91072 -2.41072,9.01785 -6.25,0.0893 -9.732142,2.14286 -8.035714,-0.53572 -8.392857,9.01786 -2.589286,14.19643 -4.821429,8.39285 2.5,2.32143 9.464286,-4.19643 5.714286,-0.0893 5.178571,3.21428 9.196425,-3.39285 4.19643,2.32143 0.44643,12.14285 5.71429,4.55357 4.64285,8.66072 4.46429,11.78571 -0.80357,6.78572 -5.17857,5.35714 -0.625,7.05357 -1.42857,9.375 7.32142,10.44643 0.26786,27.32143 -1.69643,10.53571 -3.39285,4.64286 -1.69643,7.67857 2.76785,7.5 5.71429,5.17857 11.25,2.94643 3.57143,7.05357 0,7.67857 -2.94643,7.76786 -7.58929,6.25001 -6.25,5.8929 -5.08928,8.3928 0,6.6964 6.42857,1.875 5.17857,-1.9642 6.25,-4.1965 5.44643,-0.089 1.60714,0.8929 6.60714,-0.7143 4.64286,7.3214 0.0893,5.625 8.03571,-0.8035 2.23214,-0.625 13.30358,-20.9822 5.71428,-4.8214 11.98238,-5.1174 7.3236,-1.83095 6.8501,-5.17703 6.12405,1.35739 8.46003,7.26049 3.06202,11.964 1.48366,2.8726 8.08122,3.9144 4.19845,9.3754 -1.76777,11.1748 -6.06091,14.2369 -1.89404,10.8591 6.06092,4.8298 13.06885,0 14.58407,-1.6415 8.64943,5.2402 19.1929,0.2525 2.90419,-6.8816 7.38674,-2.6517 6.12405,2.4622 3.283,15.7837 10.03839,11.1117 11.42735,10.6066 9.97525,5.6189 8.83884,8.9651 -0.63135,12.5638 -4.41941,9.849 1.19955,10.6697 31.441,-5.0192 10.35406,0.7261 12.75318,2.5885 10.03839,-2.9042 12.2481,-12.8163 19.82424,-17.0463 8.71257,-11.1748 0.69448,-5.9978 12.31123,-10.2278 5.68211,-9.6596 16.28871,-15.5942 21.2132,-11.6168 10.16466,-2.0203 9.09138,-4.1037 14.89975,-4.672 10.03839,-2.2728 22.8547,-7.8287 9.97526,0.1263 5.6821,-2.0203 15.90991,-3.3462 21.90768,-2.9042 20.32932,-4.9876 28.22114,-3.2198 9.21764,-4.2932 10.796,0.1263 4.73509,-1.9572 19.69798,0.063 4.35628,-1.5783 32.45115,0.5682 10.98541,0.7576 6.9448,-0.2525 14.20527,-2.4623 21.71828,-1.0101 28.66308,-4.7351 22.98097,-2.3991 12.05869,-7.07112 4.29315,-12.62691 7.44988,-15.84677 5.93464,-22.66529 0.75762,-24.74874 -2.96733,-19.95051 -7.00793,-18.11961 -6.56599,-22.91784 -7.44988,-15.02602 -6.50285,-18.81409 -10.48034,-11.80616 -3.15672,-10.22779 -6.9448,-10.73287 -5.68211,-16.03617 -5.99778,-15.7205 -7.00793,-10.48034 -4.35629,-16.92005 -5.55584,-13.32139 -4.35628,-5.55584 -9.53331,-14.20527 -10.4172,-22.41276 -5.55584,-9.84898 -7.07107,-11.93243 -1.76776,-8.9651 -16.47812,-21.65515 -0.50507,-5.1139 -15.84677,-23.86485 -19.44544,-22.79157 -12.50064,-8.83883 -8.39689,-12.87945 -10.92227,-3.91434 -20.645,-13.44765 -14.01586,-11.80616 -14.26841,-9.02824 -7.26047,-6.18718 -2.58851,-6.69226 -27.40039,-10.35407 -7.38674,0.44194 -17.5514,-8.20749 -13.32139,-0.12626 -5.61897,8.27062 -2.58852,8.46003 1.51523,4.60882 9.30297,7.78902 12.00893,8.30357 17.41072,7.32143 4.84021,9.98415 1.07329,14.83661 4.29314,24.18053 -1.07328,17.86707 -8.27063,11.61676 -16.35184,8.71256 -21.46574,4.54569 -13.19512,4.48255 -1.32583,3.21986 1.32583,4.10375 4.60882,4.92449 5.3033,8.64943 -1.45209,11.11168 -6.37659,9.91212 -11.17481,6.69226 -9.84899,3.40926 -5.68211,6.43973 0.31567,21.15007 -7.1342,11.42735 -1.07329,4.41941 7.44988,16.47812 0.75761,8.90197 -2.58851,7.07106 -0.37881,0.31568 -1.70463,9.34391 3.15673,8.33376 3.97747,8.08122 2.84105,21.08693 2.96733,18.49842 1.07328,10.35406 5.30331,15.7205 0.12626,3.53554 -15.59423,6.43972 -27.33725,5.17703 -7.26047,7.82868 -14.079,6.37659 -10.2278,1.01015 -8.83883,4.04061 -8.39689,0.75762 -15.21543,3.6618 -11.49048,2.77792 -11.49049,-2.27284 -10.796,-1.70464 -7.70241,2.46225 -4.41942,8.9651 -16.09931,8.7757 -4.41941,0.63135 -19.0035,-4.60882 -11.67989,2.65165 -8.27062,-1.07329 -3.34613,-0.50507 -8.96511,0 -5.80837,9.02823 -6.56599,1.32583 -15.65737,-2.46225 -14.77348,-4.67195 -11.86929,-2.65165 1.10485,-0.94702 11.77459,1.95717 14.9503,1.95398 12.36607,4.73215 5.84822,-0.22322 6.5625,-8.08035 2.23214,-2.99108 16.51786,2.76786 13.66071,-3.83928 20.13393,5 12.09822,-6.16072 14.375,-13.79464 16.65178,-2.94643 10.75893,4.01786 7.63393,-2.67857 0.9375,-0.66965 24.77678,-7.32143 29.50893,-4.64285 15.49107,-12.90179 12.1875,-3.83928 13.52679,-0.44643 8.79464,-4.73215 0.44643,-6.33928 -4.0625,-11.25 -2.23214,-18.88393 -4.24107,-8.52679 -2.00893,-21.91964 -5.49107,-13.03571 -0.84822,-12.5 0.58036,-5.9375 0.40178,-11.78572 -4.19642,-7.23214 -0.13393,-12.32143 5.3125,-8.52678 1.875,-21.29465 1.51785,-8.25892 3.61608,-4.55358 6.16071,-4.50892 6.47321,-1.83036 3.88393,0.58036 5.22322,-2.05358 5.08928,-7.67857 0.22322,-11.96428 -2.09822,-5.3125 -7.54464,-9.95536 0.66964,-7.00893 6.78572,-4.19643 12.67857,-3.48214 0.40178,0.22321 17.1875,-3.48214 15.35715,-9.33036 7.00893,-15.625 -3.4375,-16.96428 -0.89286,-27.8125 -0.0893,-1.74107 -6.42857,-6.83036 -18.16964,-6.33929 -5.71429,-3.48214 -12.32143,-10.9375 -2.72321,-11.07143 1.42857,-15.35714 5.71429,-10.44643 -2.1875,-4.73214 -11.78572,-12.32143 -12.27678,-8.21429 -7.94643,-11.38392 -35,-26.33929 -11.96429,-9.0625 -12.76785,-7.54464 -22.23215,-8.88393 L 428.61607,369.28572 417.14286,365 l -10.08929,-7.76785 -20.98214,-18.03572 21.51785,18.48215 -6.42857,4.10714 -3.75,-0.17857 -6.69643,-5.625 -5.26785,-1.875 -4.10715,2.32143 -3.83928,11.16071 -7.41072,8.30357 -11.16071,1.16072 -8.92857,5.98214 -2.94643,0 -4.91071,3.125 -3.21429,-0.71429 -4.46429,-4.91071 0.35715,-5.08929 -4.82143,-4.375 -6.07143,-0.26785 -8.66071,9.46428 -9.46429,5 -16.78571,6.96429 -3.57143,6.78571 -1.25,5.08929 -7.5,4.82143 -15.80357,-1.875 -5.89286,0.0893 -6.96429,11.51786 0,3.03571 5.80357,3.66072 6.16072,4.91071 2.32143,2.94643 -3.66072,3.48214 -5.35714,7.67857 3.57143,15.35715 -5.17857,11.60714 -27.94643,13.57143 -6.42857,10.35714 3.57143,14.10714 13.03571,11.875 4.19643,11.33929 -3.75,10.08928 0.625,6.69643 5.80357,5.71429 17.23214,7.67857 3.39286,9.375 -3.30357,6.07143 -18.57143,-2.41072 -6.16071,-5.17857 -13.83929,6.51786 -8.21429,-6.60714 -1.25,-3.39286 -13.30357,-3.48214 -3.75,18.66071 -2.5,1.78572 -9.64285,-0.17858 -5.08929,3.39286 4.82143,34.55357 0,25.625 6.69643,30.80357 4.55357,7.23215 0.26786,12.5 -4.91072,3.66071 -21.33928,0.89286 -2.32143,2.41071 -0.44643,7.76786 -2.85714,2.85714 -5.625,-5.26785 -7.05358,-1.875 -7.32142,3.30357 z"
       id="path15879"
       inkscape:connector-curvature="0" />
    <path
       style="fill:#ededed;fill-opacity:1;fill-rule:evenodd;stroke:#4b4b4b;stroke-width:1.25000000000000000;stroke-linecap:butt;stroke-linejoin:miter;stroke-miterlimit:4;stroke-opacity:1;stroke-dasharray:none;display:inline"
       d="m 347.14286,22.142855 -25.35715,13.214286 -13.92857,13.214286 -6.42857,3.571428 -18.57143,16.785715 -2.14285,1.428571 -3.21429,4.642857 -3.21429,4.285715 -0.35714,2.857142 8.21429,10.357143 4.28571,6.785715 7.5,6.785717 7.5,8.57143 6.42857,11.42857 3.21429,3.57143 6.42857,5 4.28571,0 9.28572,2.85714 24.64286,10.71428 4.64285,5 6.07143,7.14286 5.35714,5 4.28572,3.57143 5.35714,0 0.35714,8.21429 3.57143,4.64285 4.64286,8.92857 30,24.64286 13.57143,11.07143 8.92857,5.71429 14.28572,12.5 7.5,5 8.57142,1.42857 11.42858,4.28571 12.5,9.64286 5.35714,2.85714 11.07143,3.92857 15.35714,8.57143 L 535,282.5 l 13.21429,7.14286 4.64285,4.64285 10.35715,4.64286 6.07143,3.92857 7.5,6.07143 8.92857,2.5 5.71428,5 5.35715,1.07143 9.28571,8.57143 13.92857,7.5 4.64286,4.28571 11.78571,5.35714 6.78572,0.71429 13.21428,5.71429 L 678.21429,350 732.5,370.35714 l 6.07143,3.92857 10.71429,8.57143 6.42857,3.92857 7.5,0 11.42857,6.78572 12.85714,0 13.92857,5 15.71429,3.57143 11.78571,1.42857 8.21429,0 L 844.28572,400 850,399.28571 853.57143,397.5 l 0,-2.85714 8.21429,-2.14286 3.92857,-5.35714 2.14285,-3.21429 7.5,-7.85714 1.42858,-16.78572 5,-9.28571 4.28571,-11.42857 0,-7.14286 L 882.85714,325 880,319.28571 870,307.5 l -8.92857,-5 -10.35714,-3.57143 -4.28572,-0.35714 -5.35714,-3.21429 -9.64286,0 -4.64285,-2.5 0,-5.71428 -12.5,-6.78572 -26.78572,-10 L 777.14286,267.5 756.42857,261.07143 745.35714,254.28571 736.07143,250 728.21429,245 723.92857,244.64286 720,241.78571 714.28572,240.35714 709.64286,236.07143 691.78572,230 l -11.42858,-1.42857 -30.71428,-14.64286 -19.28572,-8.21429 -5,-3.21428 -10,-11.07143 -2.85714,-5.35714 -10,-13.21429 -15.35714,-15.71428 -17.5,-13.57143 -6.42857,-2.85715 -23.57143,-20.35714 -2.5,-2.85714 0.35714,-16.07143 -14.64286,-15.357143 -9.64285,-3.571429 -11.07143,-7.857143 -8.57143,-7.5 -12.14286,-13.571428 -1.78571,-5.714286 -10,0 L 452.5,38.214284 434.64286,30.357141 428.21429,26.785712 413.57143,25.357141 403.92857,22.499998 383.21429,21.42857 375,19.285712 l -4.64286,0 -3.92857,1.428572 -7.85714,0 -11.42857,1.428571 z"
       id="path2233"
       inkscape:connector-curvature="0" />
    <path
       style="fill:#ededed;fill-opacity:1;fill-rule:evenodd;stroke:#4b4b4b;stroke-width:1.25000000000000000;stroke-linecap:butt;stroke-linejoin:miter;stroke-miterlimit:4;stroke-opacity:1;stroke-dasharray:none;display:inline"
       d="m 632.5,416.42857 -7.14286,3.21429 -3.57142,4.64285 -3.57143,1.78572 0.71428,4.64285 4.28572,4.28572 10,2.14286 22.5,11.78571 7.5,4.28571 25.71428,18.57143 14.64286,8.57143 17.14286,10.35714 22.5,17.85715 10.71428,9.28571 12.85715,16.07143 6.42857,7.85714 5.35714,5 11.78571,-0.35714 6.78572,-7.5 1.42857,-26.42857 -2.14286,-4.64286 -9.28571,-11.07143 -3.92857,-4.64285 -4.28572,-2.85715 -26.07143,-23.21428 -14.28571,-11.78572 -5.35714,-0.71428 -28.92857,-12.5 -7.14286,-2.85715 -7.5,-0.71428 L 655.71429,425 641.78572,418.57143 632.5,416.42857 z"
       id="path2237"
       inkscape:connector-curvature="0" />
    <path
       style="fill:#ededed;fill-opacity:1;fill-rule:evenodd;stroke:#4b4b4b;stroke-width:1.25000000000000000;stroke-linecap:butt;stroke-linejoin:miter;stroke-miterlimit:4;stroke-opacity:1;stroke-dasharray:none;display:inline"
       d="m 800.71429,487.14286 1.07143,4.64285 8.57142,8.92857 5.71429,13.21429 0,16.78571 -2.5,6.07143 0,5 9.64286,11.78572 6.42857,5 5.35714,2.85714 7.85714,8.21429 10,0.71428 6.07143,-6.07143 3.92857,-0.71428 7.14286,-7.85715 0,-5 7.85714,-13.92857 0,-7.14285 2.14286,-5 -5.71428,-16.78572 -4.64286,-3.21428 -21.42857,-5.71429 -3.92857,-3.21429 -6.42858,-3.21428 -4.64285,-0.35714 -8.92857,-5 -8.21429,-0.71429 -5.71429,-3.57143 -5.71428,0 -3.92857,4.28572 z"
       id="path2239"
       inkscape:connector-curvature="0" />
    <a
       id="a2267"
       style="fill:#f7d3aa;fill-opacity:1;stroke-width:1.25000000000000000;stroke-miterlimit:4;stroke-dasharray:none;display:inline;stroke:#4b4b4b;stroke-opacity:1" />
    <path
       style="fill:none;stroke:#4b4b4b;stroke-width:1.25000000000000000;stroke-linecap:butt;stroke-linejoin:miter;stroke-miterlimit:4;stroke-opacity:1;stroke-dasharray:none;display:inline"
       d="m 117.14286,889.64286 8.92857,9.64285 10,5.35715 5.71428,1.78571 L 147.5,905 l 3.92857,0 7.14286,-8.57143 12.14286,-5.71428 4.28571,0 6.42857,3.21428 8.57143,-0.71428 16.07143,-6.78572 6.07143,-10.35714 L 211.42857,870 215,863.21429 l -2.14286,-4.28572 1.42857,-5 -0.35714,-7.85714 -0.71428,-3.21429 0.35714,-6.42857 L 207.5,830 l 1.07143,-7.85714 1.78571,-2.5 -3.57143,-6.42857 4.28572,-5.35715 0,-2.85714 -8.57143,-4.64286 -3.21429,-4.28571 0,-4.28572 5.35715,-1.42857 7.85714,3.21429 6.78571,3.21428 8.57143,-0.35714 6.07143,-5 0,-7.85714 -5,-2.85714 -5.35714,-4.64286 0,-2.14286 -3.92857,-4.64286 -5.71429,0.71429 -2.14286,-4.28571 3.92858,-4.28572 0,-3.21428 -5.35715,-4.64286 0,-3.21429 18.92857,-0.71428 17.85715,10.35714 11.07143,-0.71429 0.71428,-8.57142 11.07143,-5.35715 6.07143,-6.07143 2.85714,-9.64285 2.14286,-15.71429 2.5,-2.85714 21.78571,6.78571 7.85715,4.28572 2.5,13.92857 11.42857,1.78571 9.28571,-11.78571 12.14286,-4.28572 16.78571,0.71429 7.85715,-5.35714 0,-3.92858 L 367.85714,705 380,701.07143 l 6.78571,0 3.92858,-3.21429 5.71428,0 13.57143,18.57143 22.14286,28.21429 3.92857,13.92857 L 435,782.85714 422.5,792.5 l -13.57143,6.07143 -2.5,17.14286 -5,8.21428 -0.71428,2.14286 10.35714,14.64286 -3.21429,13.57142 -0.35714,5.35715 -3.21429,6.07143 10.71429,8.57142 15.71429,1.42858 -8.92858,2.85714 -10.71428,-4.28572 L 394.64286,877.5 380,891.42857 368.21429,897.5 l -20,-5 -13.92858,3.92857 -16.42857,-2.85714 -8.92857,11.07143 -6.07143,0 L 291.07143,900 l -17.14286,-2.14286 -12.5,-2.14285 -10,-5.71429 -4.64286,-4.28571 3.57143,4.64285 12.14286,6.42857 12.14286,2.85715 15.35714,4.64285 15,2.5 6.78571,-1.42857 5.71429,-8.92857 8.92857,0 8.21429,1.07143 3.57143,0.71429 L 350,895.35714 368.92857,900 l 4.28572,-0.35714 9.64285,-5.35715 6.42857,-3.57142 4.64286,-8.92858 7.5,-2.5 12.14286,1.78572 10.35714,2.14286 11.42857,-2.5 -0.35714,30.35714 -3.21429,8.57143 -7.14285,4.64285 -1.07143,5.71429 1.07143,1.78571 L 420.35714,942.5 415,944.64286 l -12.85714,-2.5 -23.21429,-0.71429 -4.64286,4.64286 -3.21428,6.07143 -10.35714,-0.71429 -4.64286,-3.21428 -5.35714,-1.78572 L 335.35714,935 l -3.21428,-5.71429 -10.35715,-4.64285 -12.14285,0 -17.5,8.92857 -7.85715,2.85714 -13.92857,-1.78571 -10.35714,-5 -2.14286,0 -1.42857,7.85714 -2.85714,0 -5.71429,-6.78571 -3.21428,0 -3.92857,5 6.78571,1.78571 0.71429,2.85714 -3.92858,1.07143 -2.85714,4.64286 -4.64286,-1.07143 -12.5,2.85714 -2.85714,-4.64285 2.85714,-5.71429 7.14286,-7.14286 -16.07143,-3.57143 -5.71428,-2.5 -7.5,5.71429 L 205,944.28571 199.28571,945 l -44.64285,-2.14286 -8.57143,-4.64285 -1.78572,-8.92858 2.5,-9.64285 1.42858,-6.42857 L 151.07143,905"
       id="path2292"
       inkscape:connector-curvature="0" />
    <path
       style="fill:none;stroke:#4b4b4b;stroke-width:1.25000000000000000;stroke-linecap:butt;stroke-linejoin:miter;stroke-miterlimit:4;stroke-opacity:1;stroke-dasharray:none;display:inline"
       d="M 395.71429,697.85714 389.64286,681.07143 385,675.71428 l -6.07143,-14.64285 -17.85714,0.71428 -3.57143,-1.07143 -2.14286,-5 -6.42857,-9.28571 L 341.07143,625 l -7.14286,-11.42857 -8.21428,-11.78572 -17.14286,0 -5,1.42857 -10,-3.92857 -13.21429,-11.42857 -6.78571,-3.92857 -8.21429,-1.07143 -6.42857,-6.42857"
       id="path2294"
       inkscape:connector-curvature="0" />
    <path
       style="fill:none;stroke:#4b4b4b;stroke-width:1.25000000000000000;stroke-linecap:butt;stroke-linejoin:miter;stroke-miterlimit:4;stroke-opacity:1;stroke-dasharray:none;display:inline"
       d="m 348.21429,1154.6429 32.14285,-5 10.35715,0.7142 12.85714,2.5 10,-2.8571 12.5,-13.2143 19.28571,-16.4286 8.92858,-11.4285 0.71428,-6.0715 12.14286,-10 5.71428,-9.6428 16.42858,-15.7143 21.07142,-11.4286 -10,-13.5714 -1.07142,0.7143 -0.71429,5 -2.85714,2.8571 -1.78572,-0.3571 -1.07143,-12.1429 4.64286,-5 -1.78571,-3.2143 -6.07143,0 -8.57143,1.7858 -6.42857,-1.0715 -4.28572,-4.6428 -1.42857,-7.8572 -2.5,-2.8571 -10.71428,-2.1429 -9.28572,-0.3571 -0.35714,-1.7857 7.85714,-10 -2.5,-6.78574 -0.35714,-10 -2.14286,-2.85715 0,-7.5 -6.07143,-5 -7.5,-2.85714 1.42857,-17.14286 -1.42857,-3.21428 -3.92857,0 -2.5,-7.14286 0,-5.71428 -5.35714,-3.57143"
       id="path2296"
       inkscape:connector-curvature="0" />
    <path
       style="fill:none;stroke:#4b4b4b;stroke-width:1.25000000000000000;stroke-linecap:butt;stroke-linejoin:miter;stroke-miterlimit:4;stroke-opacity:1;stroke-dasharray:none;display:inline"
       d="m 379.28571,361.78571 5.35715,3.92857 15.35714,23.92858 -0.71429,15.71428 13.21429,16.78572 1.07143,13.21428 0,17.85714 L 405,457.5 l -2.85714,0.71428 -0.71429,6.78572 3.92857,7.14286 3.57143,14.64285 6.78572,11.42857 -0.35715,18.21429 6.42857,17.85714 -1.07142,4.64286 0.35714,4.64286 -2.5,12.5 0.35714,11.42857 1.42857,9.28571 15.71429,12.14286 L 447.5,600 l 9.64286,9.28571 -1.42857,2.5 -6.07143,3.21429 -15,1.07143 -12.14286,5 -16.78571,8.21428 -8.57143,2.14286 -6.07143,-1.07143 -10,-3.92857 -6.78572,-5.35714 -20,-15.35715 -7.5,-3.21428 -10.71428,-2.85714 -10.71429,1.78571"
       id="path2298"
       inkscape:connector-curvature="0" />
    <path
       style="fill:none;stroke:#4b4b4b;stroke-width:1.25000000000000000;stroke-linecap:butt;stroke-linejoin:miter;stroke-miterlimit:4;stroke-opacity:1;stroke-dasharray:none;display:inline"
       d="m 407.14286,357.5 10,7.5 11.42857,4.28571 15.71428,14.64286 22.14286,8.92857 12.85715,7.5 24.28571,18.21429 22.85714,17.14285 7.85715,11.42858 12.14285,8.21428 11.78572,12.5 2.14285,4.64286 -5.71428,10.35714 -1.42857,15.35714 2.85714,11.07143 12.5,11.07143 5.35714,3.21429 -2.5,2.14285 0.71429,6.42858 -13.21429,17.5 -0.71428,2.5 -9.28572,2.14285 -3.92857,-3.57143 -9.64286,0 0,-3.57142 -12.14285,-0.71429 -1.07143,-2.5 -10.71429,0.35714 -3.57143,1.42857 -11.07142,-0.35714 L 497.5,550 l -3.57143,0.35714 0,4.28572 -1.42857,0 -0.71428,3.57142 -3.92858,0.35715 0.71429,7.5 -3.57143,0 -1.42857,3.92857 -1.78571,0 0.71428,3.21428 3.92857,0 -1.07143,5.35715 1.42858,12.85714 -6.42858,6.42857 -1.42857,-3.21428 -6.07143,-2.85715 0,-5.35714 -2.14285,1.42857 -2.85715,0 -1.78571,-5 L 468.92857,580 455.71429,568.57143 450,574.28571 l -14.28571,-0.35714 -4.28572,-2.5 2.14286,-3.21429 1.07143,-5.71428 -5.71429,2.5 -10.35714,3.21428"
       id="path2300"
       inkscape:connector-curvature="0" />
    <path
       style="fill:none;stroke:#4b4b4b;stroke-width:1.25000000000000000;stroke-linecap:butt;stroke-linejoin:miter;stroke-miterlimit:4;stroke-opacity:1;stroke-dasharray:none;display:inline"
       d="m 535,550.35714 2.14286,11.78572 4.64286,7.5 3.92857,0 2.14285,-1.78572 3.57143,4.64286 -1.42857,6.07143 -2.85714,4.28571 3.57143,3.92857 5.35714,7.5 1.07143,5.71429 5.71428,7.14286 0.35715,4.64285 17.5,-3.57143 15,-9.28571 7.14285,-15.71429 -3.21428,-16.78571 -1.07143,-29.64286 L 592.14286,530 573.92857,523.57143"
       id="path2302"
       inkscape:connector-curvature="0" />
    <path
       style="fill:none;stroke:#4b4b4b;stroke-width:1.25000000000000000;stroke-linecap:butt;stroke-linejoin:miter;stroke-miterlimit:4;stroke-opacity:1;stroke-dasharray:none;display:inline"
       d="M 563.21429,611.42857 550,615 l -6.42857,3.92857 -11.42857,0.71429 0.71428,-11.78572 -14.28571,-21.42857 -0.71429,-11.07143 2.5,-13.92857 -1.42857,-5 4.28572,-1.78571 -0.35715,-8.21429"
       id="path2304"
       inkscape:connector-curvature="0" />
    <path
       style="fill:none;stroke:#4b4b4b;stroke-width:1.25000000000000000;stroke-linecap:butt;stroke-linejoin:miter;stroke-miterlimit:4;stroke-opacity:1;stroke-dasharray:none;display:inline"
       d="m 532.14286,619.28571 -2.85714,3.21429 -17.85715,-0.35714 -2.85714,-1.78572 -2.14286,-9.28571 1.78572,-7.5 -10.71429,-10.35715 -3.57143,-2.5 -7.14285,0.71429"
       id="path2306"
       inkscape:connector-curvature="0" />
    <path
       style="fill:none;stroke:#4b4b4b;stroke-width:1.25000000000000000;stroke-linecap:butt;stroke-linejoin:miter;stroke-miterlimit:4;stroke-opacity:1;stroke-dasharray:none;display:inline"
       d="m 422.14286,621.07143 4.64285,4.28571 3.92858,7.85714 6.07142,5.35715 3.57143,0.71428 6.78572,4.64286 12.5,0 15,-2.85714 12.14286,-5.35715 0,-5.71428 11.78571,-3.21429 4.64286,-2.5 7.85714,-2.14285"
       id="path2308"
       inkscape:connector-curvature="0" />
    <path
       style="fill:none;stroke:#4b4b4b;stroke-width:1.25000000000000000;stroke-linecap:butt;stroke-linejoin:miter;stroke-miterlimit:4;stroke-opacity:1;stroke-dasharray:none;display:inline"
       d="m 517.14286,622.5 2.14286,8.21428 3.21428,5.71429 -2.85714,2.14286 -6.07143,0 -1.78571,2.14285 -7.14286,5.35715 -6.07143,0.35714 -2.5,-6.07143 -6.07143,-2.14286 -3.92857,-2.85714"
       id="path2310"
       inkscape:connector-curvature="0" />
    <path
       style="fill:none;stroke:#4b4b4b;stroke-width:1.25000000000000000;stroke-linecap:butt;stroke-linejoin:miter;stroke-miterlimit:4;stroke-opacity:1;stroke-dasharray:none;display:inline"
       d="m 543.57143,618.92857 -0.71429,7.14286 7.5,10 2.14286,5.35714 -0.35714,12.14286 -5,7.5 -5,2.14285 -4.93786,-1.02005"
       id="path2312"
       sodipodi:nodetypes="cccccccc"
       inkscape:connector-curvature="0" />
    <path
       style="fill:none;stroke:#4b4b4b;stroke-width:1.25000000000000000;stroke-linecap:butt;stroke-linejoin:miter;stroke-miterlimit:4;stroke-opacity:1;stroke-dasharray:none;display:inline"
       d="m 538.57143,662.5 -7.14286,2.14286 -6.07143,4.28571 -1.78571,-8.92857 -6.78571,-3.57143 -4.64286,-16.07143"
       id="path2314"
       inkscape:connector-curvature="0" />
    <path
       style="fill:none;stroke:#4b4b4b;stroke-width:1.25000000000000000;stroke-linecap:butt;stroke-linejoin:miter;stroke-miterlimit:4;stroke-opacity:1;stroke-dasharray:none;display:inline"
       d="m 396.42857,631.07143 12.14286,6.07143 8.92857,3.21428 -2.5,12.85714 -2.5,10.35715 4.64286,9.28571 8.57143,6.07143 13.92857,1.78571 L 451.07143,670 l 3.57143,-0.71429 7.14286,8.21429 2.5,7.14286 10.35714,-4.64286 3.92857,0 0,-4.64286 7.5,-9.28571 6.07143,-4.64286 4.64286,-1.07143 0.71428,-4.28571 -1.07143,-3.57143 2.14286,-6.07143"
       id="path2316"
       inkscape:connector-curvature="0" />
    <path
       style="fill:none;stroke:#4b4b4b;stroke-width:1.25000000000000000;stroke-linecap:butt;stroke-linejoin:miter;stroke-miterlimit:4;stroke-opacity:1;stroke-dasharray:none;display:inline"
       d="M 464.28572,684.28571 470,698.57143 l 7.5,13.21428 5.71429,14.28572 6.78571,2.85714 5,1.07143 6.07143,2.14286 -1.07143,9.28571 5.35714,2.85714 5.71429,-1.07143 6.07143,0 0.35714,-12.14285 -4.28571,-7.14286 0,-12.5 5.35714,-8.57143 1.78571,-21.07143 1.42858,-8.21428 3.57142,-4.64286"
       id="path2318"
       inkscape:connector-curvature="0" />
    <path
       style="fill:none;stroke:#4b4b4b;stroke-width:1.25000000000000000;stroke-linecap:butt;stroke-linejoin:miter;stroke-miterlimit:4;stroke-opacity:1;stroke-dasharray:none;display:inline"
       d="M 429.64286,875.35714 440,872.14286 455.35714,867.85714 475.71429,865 484.64286,863.21429 500.35714,850.35714 512.5,846.42857 526.07143,846.07143 535,841.42857 535.35714,835 531.42857,823.92857 528.92857,805 525,796.42857 522.85714,774.28571 517.5,761.42857 l -1.07143,-12.5 0.71429,-6.07143"
       id="path2320"
       inkscape:connector-curvature="0" />
    <path
       style="fill:none;stroke:#4b4b4b;stroke-width:1.25000000000000000;stroke-linecap:butt;stroke-linejoin:miter;stroke-miterlimit:4;stroke-opacity:1;stroke-dasharray:none;display:inline"
       d="m 435,880.35714 15.35714,-3.57143 8.57143,-0.71428 8.92857,-3.92857 10,-1.07143 14.28572,-6.42857 7.14286,-7.85715 13.92857,-2.85714 13.57143,-2.5 12.14285,-5 3.21429,-1.42857 3.57143,5 -0.71429,5.35714 5.71429,2.85715 8.57143,-5.35715 3.57142,-0.71428 12.14286,8.21428 3.57143,-1.78571 5,0 2.14286,1.42857 8.57143,-0.35714 3.21428,-0.35715 8.57143,-0.71428 1.78571,-2.85714 4.28572,-0.35715 7.14286,0 4.28571,0.71429 3.21429,-0.71429 5.35714,0 8.57143,3.92857 10,5.71429 6.07143,2.14286 15.71428,-0.71429 9.64286,-2.5 8.21428,0 2.85715,-1.07143 7.85714,0 21.78571,9.28572 12.85715,5 6.07143,4.64285 3.92857,8.92858 7.85714,6.07142 9.64286,10.71429 17.14285,18.21429 6.07143,5.35714 1.42857,10.71428 -4.64285,8.92858 -2.14286,11.42857 -1.42857,13.57143 0.71428,10.35714 -2.5,2.85714 0.35715,2.14286 -4.28572,3.92857 -2.14285,17.5 -11.42858,-1.0714 -32.14285,-0.3572 -4.28572,1.4286 -19.64285,0 -4.64286,1.7857 -10.71429,0 -9.28571,4.2857 -28.21429,3.2143 -20.35714,5 -22.5,2.8572 -15.71429,3.5714 L 587.5,1035 l -10,0 -23.57143,7.8571 -9.64285,2.1429 -14.64286,4.6429 -9.28572,4.2857 L 510,1055.7143"
       id="path2326"
       inkscape:connector-curvature="0" />
    <path
       style="fill:none;stroke:#4b4b4b;stroke-width:1.25000000000000000;stroke-linecap:butt;stroke-linejoin:miter;stroke-miterlimit:4;stroke-opacity:1;stroke-dasharray:none;display:inline"
       d="M 612.14286,855 612.5,850.35714 610.71429,845 l 2.14285,-7.5 1.42858,-2.5 -1.78572,-1.42857 -2.85714,0 -1.78572,2.14286 -3.57142,-1.78572 -3.92858,-0.35714 0.71429,-5.35714 1.78571,-2.5 0,-4.28572 -2.5,-10.35714 -2.5,-1.78572 -6.78571,-1.42857 0,-5.71428 6.07143,-10.71429 0.71428,-7.5 4.28572,-1.07143 5.71428,-5 0,-2.85714 -2.85714,0 -3.57143,0.71429 -4.64285,-0.71429 -0.71429,-5 8.57143,-4.28571 5.71428,-4.64286 0,-4.64286 -4.64285,-2.85714 -0.71429,-6.78572 -3.92857,-4.64285 -5,1.42857 -1.42857,1.42857 -5,-1.78572 -1.78572,-1.07142 -1.78571,0.35714 -2.14286,2.5 -18.21428,-0.35714 -14.28572,1.78571 -5.71428,0.35714 -6.78572,0 -1.78571,-0.71428 -12.5,3.92857 -1.78572,9.64286 3.21429,8.21428 3.92857,7.85715 1.42857,11.42857 2.5,15.71428 1.78572,11.78572 1.07143,11.07143 3.57142,9.64285 1.78572,5.71429 L 542.5,845"
       id="path2328"
       inkscape:connector-curvature="0" />
    <path
       style="fill:none;stroke:#4b4b4b;stroke-width:1.25000000000000000;stroke-linecap:butt;stroke-linejoin:miter;stroke-miterlimit:4;stroke-opacity:1;stroke-dasharray:none;display:inline"
       d="m 586.07143,742.14286 8.03572,2.49999 2.14285,-1.42857 4.28571,-1.07142 4.10715,4.10714 1.25,7.14286 4.46428,2.49999 1e-5,4.82143 -5,4.10715 -9.10715,5 0.35714,4.46428 4.64286,1.60714 4.28572,-1.25 2.67857,-0.35713 -0.35715,3.21428 -5.71428,5.53571 -4.82143,0.71429 -0.38495,7.56191 -5.49803,10.09153 -0.70531,6.25539 6.53895,1.63226 3.00699,1.64124 2.82664,10.12652 -0.35176,4.46968 -1.76956,2.68934 -1.05707,5.1678 4.95873,0.58058 2.84816,1.11271 1.92122,-1.54795 3.01597,-0.11574 1.60535,1.31281 -3.83884,10.11216 1.87546,5.14447 -0.10498,5.51957 9.39788,0.079 1.95171,0.55545 2.89305,-0.70711 5.37508,0.0395 9.05152,3.87831 7.7997,4.52799 7.61217,2.95137 17.07108,-0.54828 8.69076,-2.49282 7.8069,0.18038 3.79128,-1.09298 7.34116,-0.18754 35.0622,14.70405 5.89403,4.45099 3.59593,9.04719 7.6618,5.33487 26.75368,29.19973 6.60114,5.68843 1.47462,10.4614 -5.06612,9.57752 -1.88414,10.81495 -1.17704,13.99694 0.76752,10.28462 -3.12159,3.03678 0.76751,1.62256 -4.53578,4.09744 -1.70737,17.17888 6.8354,0.034 14.26004,-2.6175 21.15432,-1.0266 30.87705,-5.2692 21.3311,-1.5568 12.31549,-7.92079 4.00698,-12.51699 6.83541,-14.63841 6.48186,-22.77004 0.825,-24.71459 -2.8873,-19.76483 -6.7764,-18.88105 -6.77639,-22.77004 -7.4835,-14.99187 -6.59962,-18.88095 -10.66548,-11.98666 -2.35698,-9.86544 -7.48349,-10.74923 -11.3726,-31.60887 -7.30672,-10.926 -4.12475,-16.2293 -3.59441,-8.62801 -2.07209,-5.33346 -4.64286,-5.71429 -9.28571,-13.92857 -11.42857,-24.28571 -11.78572,-20.35715 -1.78571,-8.92857 -16.42857,-21.42857 -0.71429,-5.35714 -15.71428,-23.92857 -19.28572,-22.5 -12.5,-8.92858 -5,-7.14285 -3.57143,-5.71429 -10.71428,-3.92857 -20.71429,-13.21429 -14.28571,-12.14285 -13.92857,-8.92857 -7.5,-6.42858 -2.5,-6.42857 -27.5,-10.35714 -7.5,0.35714 -17.5,-8.21428 -13.21429,0 -5.71428,8.21428 -2.5,8.57143 1.42857,4.28572 L 572.5,510 l 12.14286,8.57143 17.14286,7.14285 5,10 1.07142,15 4.28572,24.28572 -1.07143,17.5 -8.21429,11.78571 -16.42857,8.57143 L 565,617.5 l -8.92857,3.21428 -4.28571,1.42858 -1.42858,3.21428 1.42858,3.57143 5,5.71429 5,8.21428 -1.42858,10.71429 -6.42857,10.35714 -11.07143,6.42857 -10,3.92857 -5.71428,6.07143 0,11.07143 0.35714,10 -7.14286,11.42857 -1.07142,4.64286 2.85714,6.42857 4.64286,10 L 527.5,742.85714 525,750"
       id="path2330"
       sodipodi:nodetypes="cccccccccccccccccccccccccccccccccccccccccccccccccccccccccccccccccccccccccccccccccccccccccccccccccccccccccccccccccccccccccccccccccccccccccc"
       inkscape:connector-curvature="0" />
  </g>
</svg>
